<?xml version="1.0" encoding="UTF-8" standalone="no"?>
<svg
   xmlns:dc="http://purl.org/dc/elements/1.1/"
   xmlns:cc="http://creativecommons.org/ns#"
   xmlns:rdf="http://www.w3.org/1999/02/22-rdf-syntax-ns#"
   xmlns:svg="http://www.w3.org/2000/svg"
   xmlns="http://www.w3.org/2000/svg"
   xmlns:sodipodi="http://sodipodi.sourceforge.net/DTD/sodipodi-0.dtd"
   xmlns:inkscape="http://www.inkscape.org/namespaces/inkscape"
   width="3840"
   height="2160"
   viewBox="0 0 1016 571.5"
   version="1.1"
   id="svg8"
   inkscape:version="1.0.2-2 (e86c870879, 2021-01-15)"
   sodipodi:docname="Bouncing_ball.svg"
   inkscape:export-filename="C:\Users\AC\Pictures\Inkscape\Bouncing ball\Bouncing_ball_1.png"
   inkscape:export-xdpi="149.98"
   inkscape:export-ydpi="149.98">
  <defs
     id="defs2">
    <filter
       style="color-interpolation-filters:sRGB;"
       inkscape:label="Blur"
       id="filter2680">
      <feGaussianBlur
         stdDeviation="3 3.2"
         result="blur"
         id="feGaussianBlur2678" />
    </filter>
  </defs>
  <sodipodi:namedview
     id="base"
     pagecolor="#ffffff"
     bordercolor="#666666"
     borderopacity="1.0"
     inkscape:pageopacity="0.0"
     inkscape:pageshadow="2"
     inkscape:zoom="0.175"
     inkscape:cx="-203.36937"
     inkscape:cy="799.18509"
     inkscape:document-units="px"
     inkscape:current-layer="layer7"
     inkscape:document-rotation="0"
     showgrid="false"
     inkscape:window-width="1366"
     inkscape:window-height="705"
     inkscape:window-x="-8"
     inkscape:window-y="-8"
     inkscape:window-maximized="1"
     units="px" />
  <metadata
     id="metadata5">
    <rdf:RDF>
      <cc:Work
         rdf:about="">
        <dc:format>image/svg+xml</dc:format>
        <dc:type
           rdf:resource="http://purl.org/dc/dcmitype/StillImage" />
        <dc:title></dc:title>
      </cc:Work>
    </rdf:RDF>
  </metadata>
  <g
     inkscape:groupmode="layer"
     id="layer10"
     inkscape:label="Sky"
     style="display:inline;opacity:1">
    <rect
       style="opacity:0.25641;fill:#000000;stroke:none;stroke-width:0.635"
       id="rect2053"
       width="896.55957"
       height="569.9881"
       x="0.90714294"
       y="0" />
    <path
       style="font-variation-settings:normal;opacity:0.25641;vector-effect:none;fill:#000000;fill-opacity:1;stroke:none;stroke-width:13.7143;stroke-linecap:butt;stroke-linejoin:miter;stroke-miterlimit:4;stroke-dasharray:none;stroke-dashoffset:0;stroke-opacity:1;stop-color:#000000;stop-opacity:1"
       d="m 3.6297088,2136.9608 c 0,-14.8501 3.0208332,-16.9894 41.4285722,-29.3389 194.688639,-62.5994 380.868169,-197.5923 497.222819,-360.5205 49.18879,-68.8778 113.07113,-197.5169 134.71073,-271.2654 30.37235,-103.51 37.75429,-159.7887 37.10183,-282.8571 -0.53314,-100.5738 -2.06914,-117.2735 -15.7664,-171.4286 -32.1156,-126.97633 -69.34897,-218.9393 -120.6284,-297.94108 -15.01508,-23.1324 -34.96774,-56.968 -44.33926,-75.19023 -11.47632,-22.31485 -25.1483,-38.71057 -41.87794,-50.22085 l -24.83882,-17.08955 3.67824,-51.8194 3.67825,-51.81939 -16.61338,8.91223 c -9.13736,4.90172 -24.05884,13.95945 -33.15884,20.12829 l -16.54546,11.21606 -34.88311,-29.08493 C 289.51556,419.20156 168.62243,351.88685 62.57831,315.9072 L 6.4868517,296.87596 4.9618088,150.6417 3.4367665,4.4074415 H 1694.9618 3386.4869 V 1078.6932 2152.9789 H 1695.0583 3.6297088 Z"
       id="path2616"
       transform="scale(0.26458333)" />
    <path
       style="font-variation-settings:normal;opacity:0.25641;vector-effect:none;fill:#000000;fill-opacity:1;stroke:none;stroke-width:13.7143;stroke-linecap:butt;stroke-linejoin:miter;stroke-miterlimit:4;stroke-dasharray:none;stroke-dashoffset:0;stroke-opacity:1;stop-color:#000000;stop-opacity:1"
       d="m 3.6297088,2142.25 c 0,-15.2654 7.1222462,-19.5009 73.4848122,-43.7002 77.808809,-28.3732 143.242519,-62.186 223.658049,-115.5752 81.8599,-54.348 205.45493,-174.7701 250.71793,-244.2814 44.87727,-68.919 101.78322,-184.5269 123.57408,-251.0484 34.00194,-103.7989 39.51011,-144.7415 39.25817,-291.8088 L 714.0976,1064.4075 693.27858,991.45003 C 681.82806,951.32345 662.13675,892.09037 649.52,859.82105 618.24412,779.82745 530.82155,631.35054 496.81923,600.47659 l -26.35574,-23.93086 3.35507,-51.78597 3.35507,-51.78599 -12.48625,6.61754 c -6.86743,3.63964 -22.20509,12.72102 -34.08369,20.18084 l -21.59746,13.56332 -46.97397,-36.44095 C 336.19657,456.85201 299.62971,430.64666 280.77257,418.66043 228.85878,385.66228 121.46901,333.67301 62.201138,312.84617 L 9.3439946,294.27207 9.2943255,179.33976 C 9.2670077,116.12699 7.6231163,50.907442 5.6412346,34.407442 L 2.0378122,4.4074415 H 1694.2624 3386.4869 V 1078.6932 2152.9789 H 1695.0583 C 44.208056,2152.9789 3.6297088,2152.7215 3.6297088,2142.25 Z"
       id="path2618"
       transform="scale(0.26458333)" />
    <path
       style="font-variation-settings:normal;opacity:0.25641;vector-effect:none;fill:#000000;fill-opacity:1;stroke:none;stroke-width:13.7143;stroke-linecap:butt;stroke-linejoin:miter;stroke-miterlimit:4;stroke-dasharray:none;stroke-dashoffset:0;stroke-opacity:1;stop-color:#000000;stop-opacity:1"
       d="m 440.77257,2147.246 c -238.85714,-1.66 -435.2434332,-3.6206 -436.4139738,-4.3569 -7.8534672,-4.94 19.6408658,-21.0258 66.9026618,-39.1419 152.719502,-58.5395 255.802212,-125.3554 373.252642,-241.9342 93.81731,-93.121 121.89347,-132.0729 179.10707,-248.4868 73.66229,-149.8823 87.91543,-211.6747 92.45121,-400.8083 l 3.43708,-143.318 -29.65354,-96.68199 C 645.53292,828.00825 564.91314,670.34551 500.16406,601.55031 l -26.89104,-28.57143 3.12667,-50 c 1.71968,-27.5 1.12004,-50 -1.33251,-50 -2.45256,0 -16.99651,7.71428 -32.31989,17.14285 -15.32338,9.42858 -29.94403,17.14286 -32.49032,17.14286 -2.54631,0 -19.86482,-11.94566 -38.48559,-26.54591 C 287.57623,414.70261 153.90166,341.79727 52.953207,306.8371 31.366848,299.36137 12.803596,290.61359 11.701538,287.39759 10.59948,284.18158 8.9753335,219.19076 8.0923237,142.97353 L 6.4868517,4.396766 1696.4869,4.4021038 l 1690,0.00534 V 1078.6932 2152.9789 l -1255.7143,-1.3573 c -690.6429,-0.7465 -1451.14288,-2.7155 -1690.00003,-4.3756 z"
       id="path2620"
       transform="scale(0.26458333)" />
    <path
       style="font-variation-settings:normal;opacity:0.25641;vector-effect:none;fill:#000000;fill-opacity:1;stroke:none;stroke-width:13.7143;stroke-linecap:butt;stroke-linejoin:miter;stroke-miterlimit:4;stroke-dasharray:none;stroke-dashoffset:0;stroke-opacity:1;stop-color:#000000;stop-opacity:1"
       d="m 1614.1057,2147.568 c -878.95255,-1.7383 -1599.90171,-4.9668 -1602.109265,-7.1745 -4.322301,-4.3226 20.560283,-16.7751 122.561685,-61.3359 125.98787,-55.0397 198.30821,-106.1049 315.57169,-222.824 91.8801,-91.4536 122.66419,-133.5889 172.92454,-236.6881 74.99063,-153.8285 87.56011,-207.8405 94.9072,-407.8215 l 5.11154,-139.1331 -19.68383,-64.931 C 651.5084,836.52105 580.2328,691.80888 502.9178,600.63894 l -25.00237,-29.48281 v -49.08864 c 0,-26.99874 -1.88782,-49.08861 -4.19514,-49.08861 -2.30733,0 -17.57575,7.00564 -33.92983,15.56809 l -29.73467,15.5681 -30.3559,-21.76201 C 273.15739,405.97318 177.88997,352.71242 77.300641,313.29195 L 16.685862,289.53731 13.014928,246.11022 C 10.995915,222.22532 9.3439946,158.0711 9.3439946,103.54528 V 4.4074415 H 1697.9154 3386.4869 V 1078.6932 2152.9789 l -87.1429,-1.1252 c -47.9285,-0.6189 -806.2858,-2.5475 -1685.2383,-4.2857 z"
       id="path2622"
       transform="scale(0.26458333)" />
    <path
       style="font-variation-settings:normal;opacity:0.25641;vector-effect:none;fill:#000000;fill-opacity:1;stroke:none;stroke-width:13.7143;stroke-linecap:butt;stroke-linejoin:miter;stroke-miterlimit:4;stroke-dasharray:none;stroke-dashoffset:0;stroke-opacity:1;stop-color:#000000;stop-opacity:1"
       d="m 1715.0583,2146.4202 c -895.71429,-2.557 -1642.364133,-6.206 -1659.221859,-8.109 -16.857731,-1.903 -28.42916,-5.4836 -25.714289,-7.9568 2.714871,-2.4732 43.192055,-21.7095 89.949298,-42.7473 144.60114,-65.0612 198.49435,-101.9836 317.29009,-217.3761 96.62455,-93.8566 133.68709,-143.6455 186.89343,-251.0682 68.55338,-138.408 83.96441,-198.1589 93.70955,-363.3268 9.27503,-157.1993 8.03714,-182.4678 -12.14634,-247.938 C 654.15663,840.32065 586.37715,702.37991 505.75429,600.74008 l -27.83886,-35.09597 v -46.33262 c 0,-28.07269 -2.3269,-46.33261 -5.90425,-46.33261 -3.24734,0 -18.35475,6.30914 -33.57203,14.02032 L 410.77138,501.01952 354.3434,461.98484 C 274.0272,406.4252 178.03404,353.38198 93.585807,317.89725 53.490228,301.04929 19.586563,283.40745 18.244326,278.69316 16.90209,273.97887 14.023263,210.33602 11.846935,137.26459 L 7.889974,4.4074415 H 1697.1884 3386.4869 V 1078.6932 2152.9789 l -21.4286,-0.9549 c -11.7857,-0.5252 -754.2857,-3.0469 -1650,-5.6038 z"
       id="path2624"
       transform="scale(0.26458333)" />
    <path
       style="font-variation-settings:normal;opacity:0.25641;vector-effect:none;fill:#000000;fill-opacity:1;stroke:none;stroke-width:3.62858;stroke-linecap:butt;stroke-linejoin:miter;stroke-miterlimit:4;stroke-dasharray:none;stroke-dashoffset:0;stroke-opacity:1;stop-color:#000000;stop-opacity:1"
       d="M 527.10323,569.29937 C 325.45292,568.61026 126.44846,567.5102 84.871075,566.85483 L 9.2758367,565.66322 19.05556,494.9496 c 5.776232,-41.76586 55.301926,28.94507 80.792312,5.27277 31.227778,-29.00045 52.197858,-41.99776 67.599298,-73.96069 10.13678,-21.03705 1.85692,-41.5503 4.85688,-57.22967 3.17161,-16.57654 6.73387,-82.78162 -10.12369,-68.06205 -7.65093,6.6806 7.8331,-22.1139 1.07648,-41.74541 -13.26023,-38.52788 -7.75146,-70.49572 -27.12122,-96.53955 l -9.68716,-13.025 v -11.54346 c 0,-13.17835 -0.4292,-13.49926 -11.11248,-8.30892 l -6.65766,3.23454 -15.754445,-10.53479 C 71.279993,108.0344 49.65955,95.988271 27.76311,86.202143 17.601819,81.660777 8.4893228,77.282243 7.5131183,76.472065 5.4476795,74.757903 4.4192986,63.044246 3.250684,27.921294 L 2.4080877,2.5968884 H 449.20804 896.00798 V 286.83499 c 0,156.33094 -0.51027,284.12091 -1.13392,283.97769 -0.62368,-0.14317 -166.12055,-0.82421 -367.77083,-1.51331 z"
       id="path2626"
       sodipodi:nodetypes="sscssssssscsscsssscccsss" />
  </g>
  <g
     inkscape:label="Mars"
     inkscape:groupmode="layer"
     id="layer1"
     style="display:inline">
    <ellipse
       style="fill:#fb1f1f;fill-opacity:1;stroke:none;stroke-width:0.690764"
       id="path904"
       cx="-30.011269"
       cy="294.36746"
       ry="272.19366"
       rx="283.70636" />
    <path
       style="fill:#f01111;fill-opacity:1;stroke:none;stroke-width:0.264583px;stroke-linecap:butt;stroke-linejoin:miter;stroke-opacity:1"
       d="m 188.69383,466.85509 c 0,0 -154.49635,-135.00467 -182.5625415,-175.00296 C -21.911133,251.8877 128.67297,409.4048 176.97657,386.34616 c 6.0476,-6.40825 25.4423,27.97833 44.60119,35.52976 z"
       id="path945"
       sodipodi:nodetypes="csccc" />
  </g>
  <g
     inkscape:label="Mars glow"
     inkscape:groupmode="layer"
     id="g2632"
     style="display:none">
    <ellipse
       style="fill:#fb1f1f;fill-opacity:1;stroke:none;stroke-width:0.635;filter:url(#filter2680)"
       id="ellipse2628"
       cx="-71.815475"
       cy="319.76785"
       rx="260.80356"
       ry="250.22023"
       transform="matrix(1.0906344,0,0,1.0906344,6.5089536,-28.981982)" />
    <path
       style="fill:#f01111;fill-opacity:1;stroke:none;stroke-width:0.264583px;stroke-linecap:butt;stroke-linejoin:miter;stroke-opacity:1"
       d="m 131.53571,476.24999 c 0,0 -157.14214,-136.89455 -185.208328,-176.89284 -28.042425,-39.96443 122.541646,117.55267 170.845238,94.49403 6.0476,-6.40825 25.4423,27.97833 44.60119,35.52976 z"
       id="path2630"
       sodipodi:nodetypes="csccc" />
  </g>
  <g
     inkscape:groupmode="layer"
     id="layer8"
     inkscape:label="moving light_1"
     style="display:none;opacity:0.342949">
    <path
       style="fill:#ff4848;fill-opacity:1;stroke:none;stroke-width:0.264583px;stroke-linecap:butt;stroke-linejoin:miter;stroke-opacity:1"
       d="m -21.38156,27.796029 c 0,0 -74.435294,22.061597 29.3996482,144.325541 C 42.817281,213.09705 233.86453,386.69 241.29132,252.80009 c 0.60203,-10.85332 -2.83186,-19.10736 -4.65939,-25.82422 -1.63893,-6.02368 -5.80172,-11.19317 -4.86453,-18.67437 0.58207,-4.64644 -15.98246,-14.39357 -25.28059,-29.25474 -0.99209,-1.58565 -13.89545,6.63183 -14.58728,4.83467 -5.3085,-13.78991 -29.54881,-4.3759 -67.65216,-2.66188 -23.80836,1.07099 -20.13407,-9.98701 -20.27352,-9.97197 -5.948465,0.64141 -7.548425,-13.63405 -13.092304,-13.75299 -65.459586,-1.40443 -104.040857,-17.11308 -45.443094,-57.829677 6.011416,-4.17703 -24.18264,-1.16656 -30.79071,-1.92508 -2.248482,-0.25809 1.689671,-4.25888 -0.475476,-4.52053 -3.720025,-0.44955 -2.781137,-4.90333 -6.2494538,-5.35055 -5.173326,-0.66706 9.3452648,-8.77632 4.5849258,-9.37742 -3.4264108,-0.43266 -10.9971558,5.54403 -14.1395208,5.09299 -9.1030822,-1.3066 1.90748102,-9.0036 -5.08461,-10.42048 C -50.343684,64.323183 -21.925832,43.186524 -21.38156,27.796029 Z"
       id="path936"
       sodipodi:nodetypes="cssssssssssssssssc" />
  </g>
  <g
     inkscape:groupmode="layer"
     id="layer7"
     inkscape:label="Mars-crater"
     style="display:none">
    <ellipse
       style="opacity:0.25641;fill:#980000;fill-opacity:1;stroke:none;stroke-width:0.729839;stroke-opacity:1"
       id="path933"
       cx="-83.709282"
       cy="229.14009"
       rx="59.066566"
       ry="51.19463"
       transform="matrix(1,0,0.6534206,0.75699506,0,0)" />
  </g>
  <g
     inkscape:groupmode="layer"
     id="layer9"
     inkscape:label="Mars-crater_2"
     style="display:inline">
    <ellipse
       style="opacity:0.25641;fill:#b50000;fill-opacity:1;stroke:none;stroke-width:0.635;stroke-opacity:1"
       id="path941"
       cx="-226.40773"
       cy="342.06845"
       rx="11.717261"
       ry="24.568451" />
  </g>
  <g
     inkscape:groupmode="layer"
     id="layer2"
     inkscape:label="Ball"
     style="display:none">
    <ellipse
       style="fill:#dbdbdb;stroke-width:0.635"
       id="path11"
       cx="110.74702"
       cy="186.72025"
       rx="33.639881"
       ry="34.017857" />
  </g>
  <g
     inkscape:groupmode="layer"
     id="layer3"
     inkscape:label="light-reflection"
     style="display:none;opacity:0.50641">
    <path
       style="fill:#ececec;stroke:none;stroke-width:0.264583px;stroke-linecap:butt;stroke-linejoin:miter;stroke-opacity:1"
       d="M 91.144279,204.26908 C 70.564527,180.4821 96.489671,155.8933 96.489671,155.8933 75.373037,178.36352 91.114633,204.22268 91.144279,204.26908 Z"
       id="path14"
       sodipodi:nodetypes="ccc" />
    <ellipse
       style="opacity:0.25641;fill:#b50000;fill-opacity:1;stroke:none;stroke-width:0.635;stroke-opacity:1"
       id="path943"
       cx="-319.38708"
       cy="371.23737"
       rx="6.6817379"
       ry="23.252449" />
  </g>
  <g
     inkscape:groupmode="layer"
     id="layer5"
     inkscape:label="light-reflection_2"
     style="display:none">
    <path
       style="fill:#ececec;fill-opacity:1;stroke:none;stroke-width:0.264583px;stroke-linecap:butt;stroke-linejoin:miter;stroke-opacity:1"
       d="m 105.34192,219.79315 c 53.67262,-35.15178 2.07887,-66.90178 2.07887,-66.90178 0,0 28.15923,1.5119 30.42709,32.69494 0,0 0.56695,33.26189 -32.50596,34.20684 z"
       id="path841" />
  </g>
  <g
     inkscape:groupmode="layer"
     id="layer4"
     inkscape:label="Tail-up"
     style="display:none">
    <path
       style="fill:#afe9dd;stroke:none;stroke-width:0.264583px;stroke-linecap:butt;stroke-linejoin:miter;stroke-opacity:1"
       d="M 107.42079,152.89137 107.72321,138.33928 124.73214,127 l -1.88988,27.97024 z"
       id="path893" />
    <path
       style="fill:#d5e5ff;stroke:none;stroke-width:0.264583px;stroke-linecap:butt;stroke-linejoin:miter;stroke-opacity:1"
       d="m 119.06857,131.36297 c 0,23.25245 0,23.11881 0,23.11881 l 3.77369,0.48846 L 124.73214,127 Z"
       id="path895" />
    <path
       style="fill:#165044;stroke:none;stroke-width:0.264583px;stroke-linecap:butt;stroke-linejoin:miter;stroke-opacity:1"
       d="m 107.72321,138.33928 -0.30242,14.55209 1.62518,0.0536 0.26727,-14.63299 z"
       id="path897" />
    <path
       style="fill:#1c2422;stroke:none;stroke-width:0.264583px;stroke-linecap:butt;stroke-linejoin:miter;stroke-opacity:1"
       d="m 107.72321,138.33928 1.59003,-0.0273 L 124.73214,127 Z"
       id="path899" />
  </g>
</svg>
